# xmcd CD database file
#
# Track frame offsets:
#	150
#	24331
#	51972
#	79874
#	106756
#	132993
#	158677
#	182007
#	210361
#	238523
#	263168
#
# Disc length: 3832 seconds
#
# Revision: 0
# Processed by: cddbd v1.5.2PL0 Copyright (c) Steve Scherf et al.
# Submitted via: CDex 1.51
#
DISCID=840ef60b
DTITLE=Down To The Bone - Supercharged
DYEAR=2007
DGENRE=Jazz
TTITLE0=Supercharged
TTITLE1=Funkin Around
TTITLE2=Parkside Shuffle
TTITLE3=Cosmic Fuzz
TTITLE4=Smile to Shine
TTITLE5=Electric Vibes
TTITLE6=Greedy Fingers
TTITLE7=Shake It Up
TTITLE8=Space Dust
TTITLE9=Hip City
TTITLE10=Make It Funky
EXTD=YEAR: 2007
EXTT0=
EXTT1=
EXTT2=
EXTT3=
EXTT4=
EXTT5=
EXTT6=
EXTT7=
EXTT8=
EXTT9=
EXTT10=
PLAYORDER=
